# Tiled2Unity generated file. Do not modify by hand.
# Wavefront file for 'Level_01_mesh_0001.obj'

# Vertices (Count = 212)
v -8 -10.88 0
v -8.16 -10.88 0
v -8.16 -10.72 0
v -8 -10.72 0
v -8.16 -10.88 0
v -8.32 -10.88 0
v -8.32 -10.72 0
v -8.16 -10.72 0
v -8.32 -10.88 0
v -8.48 -10.88 0
v -8.48 -10.72 0
v -8.32 -10.72 0
v -8.48 -10.88 0
v -8.639999 -10.88 0
v -8.639999 -10.72 0
v -8.48 -10.72 0
v -9.12 -10.88 0
v -9.28 -10.88 0
v -9.28 -10.72 0
v -9.12 -10.72 0
v -9.28 -10.88 0
v -9.44 -10.88 0
v -9.44 -10.72 0
v -9.28 -10.72 0
v -9.44 -10.88 0
v -9.599999 -10.88 0
v -9.599999 -10.72 0
v -9.44 -10.72 0
v -9.599999 -10.88 0
v -9.76 -10.88 0
v -9.76 -10.72 0
v -9.599999 -10.72 0
v -6.24 -11.04 0
v -6.4 -11.04 0
v -6.4 -10.88 0
v -6.24 -10.88 0
v -6.88 -11.04 0
v -7.04 -11.04 0
v -7.04 -10.88 0
v -6.88 -10.88 0
v -7.04 -11.04 0
v -7.2 -11.04 0
v -7.2 -10.88 0
v -7.04 -10.88 0
v -7.2 -11.04 0
v -7.36 -11.04 0
v -7.36 -10.88 0
v -7.2 -10.88 0
v -7.68 -11.04 0
v -7.84 -11.04 0
v -7.84 -10.88 0
v -7.68 -10.88 0
v -7.84 -11.04 0
v -8 -11.04 0
v -8 -10.88 0
v -7.84 -10.88 0
v -8 -11.04 0
v -8.16 -11.04 0
v -8.16 -10.88 0
v -8 -10.88 0
v -8.16 -11.04 0
v -8.32 -11.04 0
v -8.32 -10.88 0
v -8.16 -10.88 0
v -8.32 -11.04 0
v -8.48 -11.04 0
v -8.48 -10.88 0
v -8.32 -10.88 0
v -8.48 -11.04 0
v -8.639999 -11.04 0
v -8.639999 -10.88 0
v -8.48 -10.88 0
v -9.12 -11.04 0
v -9.28 -11.04 0
v -9.28 -10.88 0
v -9.12 -10.88 0
v -6.08 -11.2 0
v -6.24 -11.2 0
v -6.24 -11.04 0
v -6.08 -11.04 0
v -6.24 -11.2 0
v -6.4 -11.2 0
v -6.4 -11.04 0
v -6.24 -11.04 0
v -6.4 -11.2 0
v -6.56 -11.2 0
v -6.56 -11.04 0
v -6.4 -11.04 0
v -6.56 -11.2 0
v -6.72 -11.2 0
v -6.72 -11.04 0
v -6.56 -11.04 0
v -6.72 -11.2 0
v -6.88 -11.2 0
v -6.88 -11.04 0
v -6.72 -11.04 0
v -6.88 -11.2 0
v -7.04 -11.2 0
v -7.04 -11.04 0
v -6.88 -11.04 0
v -7.04 -11.2 0
v -7.2 -11.2 0
v -7.2 -11.04 0
v -7.04 -11.04 0
v -7.2 -11.2 0
v -7.36 -11.2 0
v -7.36 -11.04 0
v -7.2 -11.04 0
v -7.36 -11.2 0
v -7.52 -11.2 0
v -7.52 -11.04 0
v -7.36 -11.04 0
v -7.52 -11.2 0
v -7.68 -11.2 0
v -7.68 -11.04 0
v -7.52 -11.04 0
v -7.68 -11.2 0
v -7.84 -11.2 0
v -7.84 -11.04 0
v -7.68 -11.04 0
v -7.84 -11.2 0
v -8 -11.2 0
v -8 -11.04 0
v -7.84 -11.04 0
v -8 -11.2 0
v -8.16 -11.2 0
v -8.16 -11.04 0
v -8 -11.04 0
v -8.16 -11.2 0
v -8.32 -11.2 0
v -8.32 -11.04 0
v -8.16 -11.04 0
v -8.32 -11.2 0
v -8.48 -11.2 0
v -8.48 -11.04 0
v -8.32 -11.04 0
v -8.48 -11.2 0
v -8.639999 -11.2 0
v -8.639999 -11.04 0
v -8.48 -11.04 0
v -9.12 -11.2 0
v -9.28 -11.2 0
v -9.28 -11.04 0
v -9.12 -11.04 0
v -6.08 -11.36 0
v -6.24 -11.36 0
v -6.24 -11.2 0
v -6.08 -11.2 0
v -6.24 -11.36 0
v -6.4 -11.36 0
v -6.4 -11.2 0
v -6.24 -11.2 0
v -6.4 -11.36 0
v -6.56 -11.36 0
v -6.56 -11.2 0
v -6.4 -11.2 0
v -6.56 -11.36 0
v -6.72 -11.36 0
v -6.72 -11.2 0
v -6.56 -11.2 0
v -6.72 -11.36 0
v -6.88 -11.36 0
v -6.88 -11.2 0
v -6.72 -11.2 0
v -6.88 -11.36 0
v -7.04 -11.36 0
v -7.04 -11.2 0
v -6.88 -11.2 0
v -7.04 -11.36 0
v -7.2 -11.36 0
v -7.2 -11.2 0
v -7.04 -11.2 0
v -7.2 -11.36 0
v -7.36 -11.36 0
v -7.36 -11.2 0
v -7.2 -11.2 0
v -7.36 -11.36 0
v -7.52 -11.36 0
v -7.52 -11.2 0
v -7.36 -11.2 0
v -7.52 -11.36 0
v -7.68 -11.36 0
v -7.68 -11.2 0
v -7.52 -11.2 0
v -7.68 -11.36 0
v -7.84 -11.36 0
v -7.84 -11.2 0
v -7.68 -11.2 0
v -7.84 -11.36 0
v -8 -11.36 0
v -8 -11.2 0
v -7.84 -11.2 0
v -8 -11.36 0
v -8.16 -11.36 0
v -8.16 -11.2 0
v -8 -11.2 0
v -8.16 -11.36 0
v -8.32 -11.36 0
v -8.32 -11.2 0
v -8.16 -11.2 0
v -8.32 -11.36 0
v -8.48 -11.36 0
v -8.48 -11.2 0
v -8.32 -11.2 0
v -8.48 -11.36 0
v -8.639999 -11.36 0
v -8.639999 -11.2 0
v -8.48 -11.2 0
v -9.12 -11.36 0
v -9.28 -11.36 0
v -9.28 -11.2 0
v -9.12 -11.2 0

# Texture cooridinates (Count = 37)
vt 0.76 0.9130435
vt 0.8 0.9130435
vt 0.8 0.9565217
vt 0.76 0.9565217
vt 0.84 0.9130435
vt 0.84 0.9565217
vt 0.12 0.9130435
vt 0.16 0.9130435
vt 0.16 0.9565217
vt 0.12 0.9565217
vt 0.2 0.9130435
vt 0.24 0.9130435
vt 0.24 0.9565217
vt 0.2 0.9565217
vt 0.04 0.9130435
vt 0.08 0.9130435
vt 0.08 0.9565217
vt 0.04 0.9565217
vt 0.12 0.6521739
vt 0.16 0.6521739
vt 0.16 0.6956522
vt 0.12 0.6956522
vt 0.76 0.8695652
vt 0.8 0.8695652
vt 0.84 0.8695652
vt 0.12 0.8260869
vt 0.16 0.8260869
vt 0.16 0.8695652
vt 0.12 0.8695652
vt 0.2 0.8260869
vt 0.24 0.8260869
vt 0.24 0.8695652
vt 0.2 0.8695652
vt 0.04 0.8260869
vt 0.08 0.8260869
vt 0.08 0.8695652
vt 0.04 0.8695652

# Normal
vn 0 0 -1

# Mesh description
g Level_01_mesh_0001

# Faces
f 1/1/1 2/2/1 3/3/1 4/4/1
f 5/2/1 6/5/1 7/6/1 8/3/1
f 9/7/1 10/8/1 11/9/1 12/10/1
f 13/11/1 14/12/1 15/13/1 16/14/1
f 17/15/1 18/16/1 19/17/1 20/18/1
f 21/7/1 22/8/1 23/9/1 24/10/1
f 25/7/1 26/8/1 27/9/1 28/10/1
f 29/11/1 30/12/1 31/13/1 32/14/1
f 33/19/1 34/20/1 35/21/1 36/22/1
f 37/19/1 38/20/1 39/21/1 40/22/1
f 41/19/1 42/20/1 43/21/1 44/22/1
f 45/19/1 46/20/1 47/21/1 48/22/1
f 49/1/1 50/2/1 51/3/1 52/4/1
f 53/2/1 54/5/1 55/6/1 56/3/1
f 57/23/1 58/24/1 59/2/1 60/1/1
f 61/24/1 62/25/1 63/5/1 64/2/1
f 65/26/1 66/27/1 67/28/1 68/29/1
f 69/30/1 70/31/1 71/32/1 72/33/1
f 73/34/1 74/35/1 75/36/1 76/37/1
f 77/7/1 78/8/1 79/9/1 80/10/1
f 81/15/1 82/16/1 83/17/1 84/18/1
f 85/7/1 86/8/1 87/9/1 88/10/1
f 89/15/1 90/16/1 91/17/1 92/18/1
f 93/11/1 94/12/1 95/13/1 96/14/1
f 97/11/1 98/12/1 99/13/1 100/14/1
f 101/15/1 102/16/1 103/17/1 104/18/1
f 105/11/1 106/12/1 107/13/1 108/14/1
f 109/7/1 110/8/1 111/9/1 112/10/1
f 113/11/1 114/12/1 115/13/1 116/14/1
f 117/23/1 118/24/1 119/2/1 120/1/1
f 121/24/1 122/25/1 123/5/1 124/2/1
f 125/26/1 126/27/1 127/28/1 128/29/1
f 129/26/1 130/27/1 131/28/1 132/29/1
f 133/26/1 134/27/1 135/28/1 136/29/1
f 137/30/1 138/31/1 139/32/1 140/33/1
f 141/34/1 142/35/1 143/36/1 144/37/1
f 145/26/1 146/27/1 147/28/1 148/29/1
f 149/26/1 150/27/1 151/28/1 152/29/1
f 153/26/1 154/27/1 155/28/1 156/29/1
f 157/26/1 158/27/1 159/28/1 160/29/1
f 161/26/1 162/27/1 163/28/1 164/29/1
f 165/26/1 166/27/1 167/28/1 168/29/1
f 169/26/1 170/27/1 171/28/1 172/29/1
f 173/26/1 174/27/1 175/28/1 176/29/1
f 177/26/1 178/27/1 179/28/1 180/29/1
f 181/26/1 182/27/1 183/28/1 184/29/1
f 185/26/1 186/27/1 187/28/1 188/29/1
f 189/26/1 190/27/1 191/28/1 192/29/1
f 193/26/1 194/27/1 195/28/1 196/29/1
f 197/26/1 198/27/1 199/28/1 200/29/1
f 201/26/1 202/27/1 203/28/1 204/29/1
f 205/30/1 206/31/1 207/32/1 208/33/1
f 209/34/1 210/35/1 211/36/1 212/37/1

