# Tiled2Unity generated file. Do not modify by hand.
# Wavefront file for 'Level_01_mesh_0004.obj'

# Vertices (Count = 76)
v -11.2 -9.76 0
v -11.36 -9.76 0
v -11.36 -9.599999 0
v -11.2 -9.599999 0
v -11.2 -9.92 0
v -11.36 -9.92 0
v -11.36 -9.76 0
v -11.2 -9.76 0
v -11.2 -10.08 0
v -11.36 -10.08 0
v -11.36 -9.92 0
v -11.2 -9.92 0
v -11.2 -10.24 0
v -11.36 -10.24 0
v -11.36 -10.08 0
v -11.2 -10.08 0
v -11.2 -10.4 0
v -11.36 -10.4 0
v -11.36 -10.24 0
v -11.2 -10.24 0
v -11.2 -10.56 0
v -11.36 -10.56 0
v -11.36 -10.4 0
v -11.2 -10.4 0
v -12.96 -11.52 0
v -13.12 -11.52 0
v -13.12 -11.36 0
v -12.96 -11.36 0
v -13.12 -11.52 0
v -13.28 -11.52 0
v -13.28 -11.36 0
v -13.12 -11.36 0
v -13.28 -11.52 0
v -13.44 -11.52 0
v -13.44 -11.36 0
v -13.28 -11.36 0
v -13.44 -11.52 0
v -13.6 -11.52 0
v -13.6 -11.36 0
v -13.44 -11.36 0
v -13.6 -11.52 0
v -13.76 -11.52 0
v -13.76 -11.36 0
v -13.6 -11.36 0
v -13.76 -11.52 0
v -13.92 -11.52 0
v -13.92 -11.36 0
v -13.76 -11.36 0
v -13.92 -11.52 0
v -14.08 -11.52 0
v -14.08 -11.36 0
v -13.92 -11.36 0
v -14.08 -11.52 0
v -14.24 -11.52 0
v -14.24 -11.36 0
v -14.08 -11.36 0
v -14.24 -11.52 0
v -14.4 -11.52 0
v -14.4 -11.36 0
v -14.24 -11.36 0
v -14.4 -11.52 0
v -14.56 -11.52 0
v -14.56 -11.36 0
v -14.4 -11.36 0
v -14.56 -11.52 0
v -14.72 -11.52 0
v -14.72 -11.36 0
v -14.56 -11.36 0
v -14.72 -11.52 0
v -14.88 -11.52 0
v -14.88 -11.36 0
v -14.72 -11.36 0
v -14.88 -11.52 0
v -15.04 -11.52 0
v -15.04 -11.36 0
v -14.88 -11.36 0

# Texture cooridinates (Count = 4)
vt 0.28 0.5217391
vt 0.32 0.5217391
vt 0.32 0.5652174
vt 0.28 0.5652174

# Normal
vn 0 0 -1

# Mesh description
g Level_01_mesh_0004

# Faces
f 1/1/1 2/2/1 3/3/1 4/4/1
f 5/1/1 6/2/1 7/3/1 8/4/1
f 9/1/1 10/2/1 11/3/1 12/4/1
f 13/1/1 14/2/1 15/3/1 16/4/1
f 17/1/1 18/2/1 19/3/1 20/4/1
f 21/1/1 22/2/1 23/3/1 24/4/1
f 25/4/1 26/1/1 27/2/1 28/3/1
f 29/4/1 30/1/1 31/2/1 32/3/1
f 33/4/1 34/1/1 35/2/1 36/3/1
f 37/4/1 38/1/1 39/2/1 40/3/1
f 41/4/1 42/1/1 43/2/1 44/3/1
f 45/4/1 46/1/1 47/2/1 48/3/1
f 49/4/1 50/1/1 51/2/1 52/3/1
f 53/4/1 54/1/1 55/2/1 56/3/1
f 57/4/1 58/1/1 59/2/1 60/3/1
f 61/4/1 62/1/1 63/2/1 64/3/1
f 65/4/1 66/1/1 67/2/1 68/3/1
f 69/4/1 70/1/1 71/2/1 72/3/1
f 73/4/1 74/1/1 75/2/1 76/3/1

