# Tiled2Unity generated file. Do not modify by hand.
# Wavefront file for 'Level_01_mesh_0005.obj'

# Vertices (Count = 168)
v -8.8 -9.76 0
v -8.96 -9.76 0
v -8.96 -9.599999 0
v -8.8 -9.599999 0
v -8.96 -9.76 0
v -9.12 -9.76 0
v -9.12 -9.599999 0
v -8.96 -9.599999 0
v -9.12 -9.76 0
v -9.28 -9.76 0
v -9.28 -9.599999 0
v -9.12 -9.599999 0
v -9.28 -9.76 0
v -9.44 -9.76 0
v -9.44 -9.599999 0
v -9.28 -9.599999 0
v -9.44 -9.76 0
v -9.599999 -9.76 0
v -9.599999 -9.599999 0
v -9.44 -9.599999 0
v -9.599999 -9.76 0
v -9.76 -9.76 0
v -9.76 -9.599999 0
v -9.599999 -9.599999 0
v -14.4 -10.4 0
v -14.56 -10.4 0
v -14.56 -10.24 0
v -14.4 -10.24 0
v -14.56 -10.4 0
v -14.72 -10.4 0
v -14.72 -10.24 0
v -14.56 -10.24 0
v -14.4 -10.56 0
v -14.56 -10.56 0
v -14.56 -10.4 0
v -14.4 -10.4 0
v -14.56 -10.56 0
v -14.72 -10.56 0
v -14.72 -10.4 0
v -14.56 -10.4 0
v -14.4 -10.72 0
v -14.56 -10.72 0
v -14.56 -10.56 0
v -14.4 -10.56 0
v -14.56 -10.72 0
v -14.72 -10.72 0
v -14.72 -10.56 0
v -14.56 -10.56 0
v -14.4 -10.88 0
v -14.56 -10.88 0
v -14.56 -10.72 0
v -14.4 -10.72 0
v -14.56 -10.88 0
v -14.72 -10.88 0
v -14.72 -10.72 0
v -14.56 -10.72 0
v -13.28 -11.04 0
v -13.44 -11.04 0
v -13.44 -10.88 0
v -13.28 -10.88 0
v -13.44 -11.04 0
v -13.6 -11.04 0
v -13.6 -10.88 0
v -13.44 -10.88 0
v -14.4 -11.04 0
v -14.56 -11.04 0
v -14.56 -10.88 0
v -14.4 -10.88 0
v -14.56 -11.04 0
v -14.72 -11.04 0
v -14.72 -10.88 0
v -14.56 -10.88 0
v -13.28 -11.2 0
v -13.44 -11.2 0
v -13.44 -11.04 0
v -13.28 -11.04 0
v -13.44 -11.2 0
v -13.6 -11.2 0
v -13.6 -11.04 0
v -13.44 -11.04 0
v -14.4 -11.2 0
v -14.56 -11.2 0
v -14.56 -11.04 0
v -14.4 -11.04 0
v -14.56 -11.2 0
v -14.72 -11.2 0
v -14.72 -11.04 0
v -14.56 -11.04 0
v -13.28 -11.36 0
v -13.44 -11.36 0
v -13.44 -11.2 0
v -13.28 -11.2 0
v -13.44 -11.36 0
v -13.6 -11.36 0
v -13.6 -11.2 0
v -13.44 -11.2 0
v -14.4 -11.36 0
v -14.56 -11.36 0
v -14.56 -11.2 0
v -14.4 -11.2 0
v -14.56 -11.36 0
v -14.72 -11.36 0
v -14.72 -11.2 0
v -14.56 -11.2 0
v -13.28 -11.52 0
v -13.44 -11.52 0
v -13.44 -11.36 0
v -13.28 -11.36 0
v -13.44 -11.52 0
v -13.6 -11.52 0
v -13.6 -11.36 0
v -13.44 -11.36 0
v -14.4 -11.52 0
v -14.56 -11.52 0
v -14.56 -11.36 0
v -14.4 -11.36 0
v -14.56 -11.52 0
v -14.72 -11.52 0
v -14.72 -11.36 0
v -14.56 -11.36 0
v -13.28 -11.68 0
v -13.44 -11.68 0
v -13.44 -11.52 0
v -13.28 -11.52 0
v -13.44 -11.68 0
v -13.6 -11.68 0
v -13.6 -11.52 0
v -13.44 -11.52 0
v -14.4 -11.68 0
v -14.56 -11.68 0
v -14.56 -11.52 0
v -14.4 -11.52 0
v -14.56 -11.68 0
v -14.72 -11.68 0
v -14.72 -11.52 0
v -14.56 -11.52 0
v -13.28 -11.84 0
v -13.44 -11.84 0
v -13.44 -11.68 0
v -13.28 -11.68 0
v -13.44 -11.84 0
v -13.6 -11.84 0
v -13.6 -11.68 0
v -13.44 -11.68 0
v -14.4 -11.84 0
v -14.56 -11.84 0
v -14.56 -11.68 0
v -14.4 -11.68 0
v -14.56 -11.84 0
v -14.72 -11.84 0
v -14.72 -11.68 0
v -14.56 -11.68 0
v -13.28 -12 0
v -13.44 -12 0
v -13.44 -11.84 0
v -13.28 -11.84 0
v -13.44 -12 0
v -13.6 -12 0
v -13.6 -11.84 0
v -13.44 -11.84 0
v -14.4 -12 0
v -14.56 -12 0
v -14.56 -11.84 0
v -14.4 -11.84 0
v -14.56 -12 0
v -14.72 -12 0
v -14.72 -11.84 0
v -14.56 -11.84 0

# Texture cooridinates (Count = 30)
vt 0.36 0.9130435
vt 0.4 0.9130435
vt 0.4 0.9565217
vt 0.36 0.9565217
vt 0.44 0.9130435
vt 0.44 0.9565217
vt 0.48 0.9130435
vt 0.48 0.9565217
vt 0.76 0.9130435
vt 0.8 0.9130435
vt 0.8 0.9565217
vt 0.76 0.9565217
vt 0.84 0.9130435
vt 0.84 0.9565217
vt 0.76 0.8695652
vt 0.8 0.8695652
vt 0.84 0.8695652
vt 0.12 0.8260869
vt 0.16 0.8260869
vt 0.16 0.8695652
vt 0.12 0.8695652
vt 0.88 0.9130435
vt 0.92 0.9130435
vt 0.92 0.9565217
vt 0.88 0.9565217
vt 0.96 0.9130435
vt 0.96 0.9565217
vt 0.88 0.8695652
vt 0.92 0.8695652
vt 0.96 0.8695652

# Normal
vn 0 0 -1

# Mesh description
g Level_01_mesh_0005

# Faces
f 1/1/1 2/2/1 3/3/1 4/4/1
f 5/2/1 6/5/1 7/6/1 8/3/1
f 9/2/1 10/5/1 11/6/1 12/3/1
f 13/2/1 14/5/1 15/6/1 16/3/1
f 17/2/1 18/5/1 19/6/1 20/3/1
f 21/5/1 22/7/1 23/8/1 24/6/1
f 25/9/1 26/10/1 27/11/1 28/12/1
f 29/10/1 30/13/1 31/14/1 32/11/1
f 33/15/1 34/16/1 35/10/1 36/9/1
f 37/16/1 38/17/1 39/13/1 40/10/1
f 41/18/1 42/19/1 43/20/1 44/21/1
f 45/18/1 46/19/1 47/20/1 48/21/1
f 49/18/1 50/19/1 51/20/1 52/21/1
f 53/18/1 54/19/1 55/20/1 56/21/1
f 57/22/1 58/23/1 59/24/1 60/25/1
f 61/23/1 62/26/1 63/27/1 64/24/1
f 65/18/1 66/19/1 67/20/1 68/21/1
f 69/18/1 70/19/1 71/20/1 72/21/1
f 73/28/1 74/29/1 75/23/1 76/22/1
f 77/29/1 78/30/1 79/26/1 80/23/1
f 81/18/1 82/19/1 83/20/1 84/21/1
f 85/18/1 86/19/1 87/20/1 88/21/1
f 89/18/1 90/19/1 91/20/1 92/21/1
f 93/18/1 94/19/1 95/20/1 96/21/1
f 97/18/1 98/19/1 99/20/1 100/21/1
f 101/18/1 102/19/1 103/20/1 104/21/1
f 105/18/1 106/19/1 107/20/1 108/21/1
f 109/18/1 110/19/1 111/20/1 112/21/1
f 113/18/1 114/19/1 115/20/1 116/21/1
f 117/18/1 118/19/1 119/20/1 120/21/1
f 121/18/1 122/19/1 123/20/1 124/21/1
f 125/18/1 126/19/1 127/20/1 128/21/1
f 129/18/1 130/19/1 131/20/1 132/21/1
f 133/18/1 134/19/1 135/20/1 136/21/1
f 137/18/1 138/19/1 139/20/1 140/21/1
f 141/18/1 142/19/1 143/20/1 144/21/1
f 145/18/1 146/19/1 147/20/1 148/21/1
f 149/18/1 150/19/1 151/20/1 152/21/1
f 153/18/1 154/19/1 155/20/1 156/21/1
f 157/18/1 158/19/1 159/20/1 160/21/1
f 161/18/1 162/19/1 163/20/1 164/21/1
f 165/18/1 166/19/1 167/20/1 168/21/1

